<?xml version="1.0" encoding="UTF-8"?>
<svg id="Layer_1" data-name="Layer 1" xmlns="http://www.w3.org/2000/svg" version="1.1" viewBox="0 0 96 96">
  <defs>
    <style>
      .cls-1 {
        fill: #3d83c4;
        stroke-width: 0px;
      }
    </style>
  </defs>
  <path class="cls-1" d="M65.8,52.4c-1.8,0-3.3,1.5-3.3,3.3s1.5,3.3,3.3,3.3,3.3-1.5,3.3-3.3-1.5-3.3-3.3-3.3Z"/>
  <path class="cls-1" d="M84.1,7.6H11.9c-3.5,0-6.3,2.8-6.3,6.3v53.6c0,3.5,2.8,6.3,6.3,6.3h11.5v9.9c0,4.2,5.1,6.3,8.1,3.3l13.3-13.3h39.3c3.5,0,6.3-2.8,6.3-6.3V13.9c0-3.5-2.8-6.3-6.3-6.3ZM30.2,17.8c3.4,0,6.2,2,7.5,4.9h24.1c7,0,7.2.3,7.2,7.2s0,4.4,0,5.6h4.6l-7.7,8.4-7.7-8.4h4.6c0-1,0-3.4,0-5.4,0-.2,0-.6,0-.9-.2,0-.5,0-.8,0h-24.1c-1.2,2.9-4.1,4.9-7.5,4.9s-8.1-3.6-8.1-8.1,3.6-8.1,8.1-8.1ZM65.8,63.8c-3.4,0-6.2-2-7.5-4.9h-24.1c-7,0-7.2-.3-7.2-7.2s0-4.4,0-5.6h-4.6l7.7-8.4,7.7,8.4h-4.6c0,1,0,3.4,0,5.4,0,.2,0,.6,0,.9.2,0,.5,0,.8,0h24.1c1.2-2.9,4.1-4.9,7.5-4.9s8.1,3.6,8.1,8.1-3.6,8.1-8.1,8.1Z"/>
  <path class="cls-1" d="M30.2,29.2c1.8,0,3.3-1.5,3.3-3.3s-1.5-3.3-3.3-3.3-3.3,1.5-3.3,3.3,1.5,3.3,3.3,3.3Z"/>
</svg>